# xmcd CD database file
#
# Track frame offsets:
#	150
#	22425
#	42850
#	67650
#	85200
#	109000
#	132575
#	144725
#	161150
#	184925
#
# Disc length: 2670 seconds
#
# Revision: 1
# Processed by: cddbd v1.5.2PL0 Copyright (c) Steve Scherf et al.
# Submitted via: jetAudio 7
#
DISCID=900a6c0a
DTITLE=群星 - 2010十大发烧唱片精选
DYEAR=2010
DGENRE=Pop
TTITLE0=春秋战国
TTITLE1=月光光
TTITLE2=D大调波兰舞曲
TTITLE3=水调歌头
TTITLE4=噶瓦砾泰
TTITLE5=听说爱情回来过
TTITLE6=巡逻兵进行曲
TTITLE7=小放牛
TTITLE8=相爱
TTITLE9=滚滚长江东逝水
EXTD=
EXTT0=
EXTT1=
EXTT2=
EXTT3=
EXTT4=
EXTT5=
EXTT6=
EXTT7=
EXTT8=
EXTT9=
PLAYORDER=
